<mxfile host="app.diagrams.net" modified="2024-01-24T16:19:23.109Z" agent="Mozilla/5.0 (Windows NT 10.0; Win64; x64) AppleWebKit/537.36 (KHTML, like Gecko) Chrome/120.0.0.0 Safari/537.36" etag="2KGEv3sDQopO8VB6qT2M" version="23.0.0" type="github">
  <diagram id="C5RBs43oDa-KdzZeNtuy" name="Page-1">
    <mxGraphModel dx="2435" dy="1208" grid="1" gridSize="10" guides="1" tooltips="1" connect="1" arrows="1" fold="1" page="1" pageScale="1" pageWidth="827" pageHeight="1169" math="0" shadow="0">
      <root>
        <mxCell id="WIyWlLk6GJQsqaUBKTNV-0" />
        <mxCell id="WIyWlLk6GJQsqaUBKTNV-1" parent="WIyWlLk6GJQsqaUBKTNV-0" />
        <mxCell id="hooPsJ-dlRzRIPjUrd0U-0" value="项目管理" style="ellipse;whiteSpace=wrap;html=1;" vertex="1" parent="WIyWlLk6GJQsqaUBKTNV-1">
          <mxGeometry x="170" y="538" width="140" height="44" as="geometry" />
        </mxCell>
        <mxCell id="hooPsJ-dlRzRIPjUrd0U-1" value="项目管理者" style="shape=umlActor;verticalLabelPosition=bottom;verticalAlign=top;html=1;" vertex="1" parent="WIyWlLk6GJQsqaUBKTNV-1">
          <mxGeometry x="50" y="621" width="30" height="60" as="geometry" />
        </mxCell>
        <mxCell id="hooPsJ-dlRzRIPjUrd0U-15" style="edgeStyle=none;rounded=0;orthogonalLoop=1;jettySize=auto;html=1;entryX=1;entryY=0.5;entryDx=0;entryDy=0;" edge="1" parent="WIyWlLk6GJQsqaUBKTNV-1" target="hooPsJ-dlRzRIPjUrd0U-14">
          <mxGeometry relative="1" as="geometry">
            <mxPoint x="940" y="670" as="sourcePoint" />
          </mxGeometry>
        </mxCell>
        <mxCell id="hooPsJ-dlRzRIPjUrd0U-2" value="项目参与方" style="shape=umlActor;verticalLabelPosition=bottom;verticalAlign=top;html=1;" vertex="1" parent="WIyWlLk6GJQsqaUBKTNV-1">
          <mxGeometry x="940" y="632" width="30" height="60" as="geometry" />
        </mxCell>
        <mxCell id="hooPsJ-dlRzRIPjUrd0U-3" value="项目创建" style="ellipse;whiteSpace=wrap;html=1;" vertex="1" parent="WIyWlLk6GJQsqaUBKTNV-1">
          <mxGeometry x="323" y="442" width="140" height="44" as="geometry" />
        </mxCell>
        <mxCell id="hooPsJ-dlRzRIPjUrd0U-4" value="模型训练" style="ellipse;whiteSpace=wrap;html=1;" vertex="1" parent="WIyWlLk6GJQsqaUBKTNV-1">
          <mxGeometry x="320" y="592" width="140" height="37" as="geometry" />
        </mxCell>
        <mxCell id="hooPsJ-dlRzRIPjUrd0U-5" style="edgeStyle=none;rounded=0;orthogonalLoop=1;jettySize=auto;html=1;entryX=0.009;entryY=0.452;entryDx=0;entryDy=0;entryPerimeter=0;" edge="1" parent="WIyWlLk6GJQsqaUBKTNV-1" source="hooPsJ-dlRzRIPjUrd0U-1" target="hooPsJ-dlRzRIPjUrd0U-0">
          <mxGeometry relative="1" as="geometry" />
        </mxCell>
        <mxCell id="hooPsJ-dlRzRIPjUrd0U-7" value="任务调度" style="ellipse;whiteSpace=wrap;html=1;" vertex="1" parent="WIyWlLk6GJQsqaUBKTNV-1">
          <mxGeometry x="560" y="459" width="140" height="41" as="geometry" />
        </mxCell>
        <mxCell id="hooPsJ-dlRzRIPjUrd0U-9" value="数据预处理" style="ellipse;whiteSpace=wrap;html=1;" vertex="1" parent="WIyWlLk6GJQsqaUBKTNV-1">
          <mxGeometry x="560" y="581" width="140" height="40" as="geometry" />
        </mxCell>
        <mxCell id="hooPsJ-dlRzRIPjUrd0U-10" value="参数配置" style="ellipse;whiteSpace=wrap;html=1;" vertex="1" parent="WIyWlLk6GJQsqaUBKTNV-1">
          <mxGeometry x="560" y="519" width="140" height="41" as="geometry" />
        </mxCell>
        <mxCell id="hooPsJ-dlRzRIPjUrd0U-11" value="日志监控" style="ellipse;whiteSpace=wrap;html=1;" vertex="1" parent="WIyWlLk6GJQsqaUBKTNV-1">
          <mxGeometry x="560" y="699" width="140" height="42" as="geometry" />
        </mxCell>
        <mxCell id="hooPsJ-dlRzRIPjUrd0U-12" value="模型输出" style="ellipse;whiteSpace=wrap;html=1;" vertex="1" parent="WIyWlLk6GJQsqaUBKTNV-1">
          <mxGeometry x="560" y="757" width="140" height="40" as="geometry" />
        </mxCell>
        <mxCell id="hooPsJ-dlRzRIPjUrd0U-14" value="分布式联邦学习" style="ellipse;whiteSpace=wrap;html=1;" vertex="1" parent="WIyWlLk6GJQsqaUBKTNV-1">
          <mxGeometry x="560" y="641" width="140" height="40" as="geometry" />
        </mxCell>
        <mxCell id="hooPsJ-dlRzRIPjUrd0U-16" value="" style="html=1;verticalAlign=bottom;endArrow=block;curved=0;rounded=0;entryX=0.987;entryY=0.338;entryDx=0;entryDy=0;entryPerimeter=0;" edge="1" parent="WIyWlLk6GJQsqaUBKTNV-1" target="hooPsJ-dlRzRIPjUrd0U-9">
          <mxGeometry x="-0.0049" width="80" relative="1" as="geometry">
            <mxPoint x="940" y="670" as="sourcePoint" />
            <mxPoint x="699.9999999999998" y="589.41" as="targetPoint" />
            <mxPoint as="offset" />
          </mxGeometry>
        </mxCell>
        <mxCell id="hooPsJ-dlRzRIPjUrd0U-17" value="include" style="html=1;verticalAlign=bottom;endArrow=block;curved=0;rounded=0;entryX=0;entryY=0.5;entryDx=0;entryDy=0;" edge="1" parent="WIyWlLk6GJQsqaUBKTNV-1" source="hooPsJ-dlRzRIPjUrd0U-0" target="hooPsJ-dlRzRIPjUrd0U-4">
          <mxGeometry width="80" relative="1" as="geometry">
            <mxPoint x="80" y="640" as="sourcePoint" />
            <mxPoint x="160" y="640" as="targetPoint" />
          </mxGeometry>
        </mxCell>
        <mxCell id="hooPsJ-dlRzRIPjUrd0U-18" value="include" style="html=1;verticalAlign=bottom;endArrow=block;curved=0;rounded=0;entryX=0;entryY=0.5;entryDx=0;entryDy=0;exitX=0.593;exitY=-0.023;exitDx=0;exitDy=0;exitPerimeter=0;" edge="1" parent="WIyWlLk6GJQsqaUBKTNV-1" source="hooPsJ-dlRzRIPjUrd0U-0" target="hooPsJ-dlRzRIPjUrd0U-3">
          <mxGeometry width="80" relative="1" as="geometry">
            <mxPoint x="270" y="570" as="sourcePoint" />
            <mxPoint x="350" y="570" as="targetPoint" />
          </mxGeometry>
        </mxCell>
        <mxCell id="hooPsJ-dlRzRIPjUrd0U-19" value="include" style="html=1;verticalAlign=bottom;endArrow=block;curved=0;rounded=0;exitX=0.995;exitY=0.407;exitDx=0;exitDy=0;exitPerimeter=0;entryX=0;entryY=0.5;entryDx=0;entryDy=0;" edge="1" parent="WIyWlLk6GJQsqaUBKTNV-1" source="hooPsJ-dlRzRIPjUrd0U-4" target="hooPsJ-dlRzRIPjUrd0U-9">
          <mxGeometry width="80" relative="1" as="geometry">
            <mxPoint x="460" y="710" as="sourcePoint" />
            <mxPoint x="561" y="550" as="targetPoint" />
          </mxGeometry>
        </mxCell>
        <mxCell id="hooPsJ-dlRzRIPjUrd0U-20" value="include" style="html=1;verticalAlign=bottom;endArrow=block;curved=0;rounded=0;entryX=0;entryY=0.5;entryDx=0;entryDy=0;exitX=1;exitY=0.5;exitDx=0;exitDy=0;" edge="1" parent="WIyWlLk6GJQsqaUBKTNV-1" source="hooPsJ-dlRzRIPjUrd0U-4" target="hooPsJ-dlRzRIPjUrd0U-10">
          <mxGeometry x="-0.0023" width="80" relative="1" as="geometry">
            <mxPoint x="470" y="720" as="sourcePoint" />
            <mxPoint x="571" y="561" as="targetPoint" />
            <mxPoint as="offset" />
          </mxGeometry>
        </mxCell>
        <mxCell id="hooPsJ-dlRzRIPjUrd0U-21" value="include" style="html=1;verticalAlign=bottom;endArrow=block;curved=0;rounded=0;exitX=1;exitY=0.5;exitDx=0;exitDy=0;entryX=0;entryY=0.5;entryDx=0;entryDy=0;" edge="1" parent="WIyWlLk6GJQsqaUBKTNV-1" source="hooPsJ-dlRzRIPjUrd0U-4" target="hooPsJ-dlRzRIPjUrd0U-14">
          <mxGeometry width="80" relative="1" as="geometry">
            <mxPoint x="470" y="720" as="sourcePoint" />
            <mxPoint x="560" y="670" as="targetPoint" />
          </mxGeometry>
        </mxCell>
        <mxCell id="hooPsJ-dlRzRIPjUrd0U-25" value="Text" style="edgeLabel;html=1;align=center;verticalAlign=middle;resizable=0;points=[];" vertex="1" connectable="0" parent="hooPsJ-dlRzRIPjUrd0U-21">
          <mxGeometry x="-0.2208" y="-15" relative="1" as="geometry">
            <mxPoint as="offset" />
          </mxGeometry>
        </mxCell>
        <mxCell id="hooPsJ-dlRzRIPjUrd0U-22" value="include" style="html=1;verticalAlign=bottom;endArrow=block;curved=0;rounded=0;entryX=0;entryY=0.5;entryDx=0;entryDy=0;" edge="1" parent="WIyWlLk6GJQsqaUBKTNV-1" target="hooPsJ-dlRzRIPjUrd0U-11">
          <mxGeometry width="80" relative="1" as="geometry">
            <mxPoint x="460" y="610" as="sourcePoint" />
            <mxPoint x="561" y="730" as="targetPoint" />
          </mxGeometry>
        </mxCell>
        <mxCell id="hooPsJ-dlRzRIPjUrd0U-23" value="include" style="html=1;verticalAlign=bottom;endArrow=block;curved=0;rounded=0;exitX=1;exitY=0.5;exitDx=0;exitDy=0;entryX=0;entryY=0.5;entryDx=0;entryDy=0;" edge="1" parent="WIyWlLk6GJQsqaUBKTNV-1" source="hooPsJ-dlRzRIPjUrd0U-4" target="hooPsJ-dlRzRIPjUrd0U-12">
          <mxGeometry x="-0.0052" width="80" relative="1" as="geometry">
            <mxPoint x="470" y="720" as="sourcePoint" />
            <mxPoint x="562" y="790" as="targetPoint" />
            <mxPoint as="offset" />
          </mxGeometry>
        </mxCell>
        <mxCell id="hooPsJ-dlRzRIPjUrd0U-24" value="include" style="html=1;verticalAlign=bottom;endArrow=block;curved=0;rounded=0;exitX=1;exitY=0.5;exitDx=0;exitDy=0;entryX=0;entryY=0.5;entryDx=0;entryDy=0;" edge="1" parent="WIyWlLk6GJQsqaUBKTNV-1" source="hooPsJ-dlRzRIPjUrd0U-4" target="hooPsJ-dlRzRIPjUrd0U-7">
          <mxGeometry width="80" relative="1" as="geometry">
            <mxPoint x="480" y="730" as="sourcePoint" />
            <mxPoint x="560" y="850" as="targetPoint" />
          </mxGeometry>
        </mxCell>
        <mxCell id="hooPsJ-dlRzRIPjUrd0U-26" value="登录" style="ellipse;whiteSpace=wrap;html=1;" vertex="1" parent="WIyWlLk6GJQsqaUBKTNV-1">
          <mxGeometry x="559" y="339" width="140" height="39" as="geometry" />
        </mxCell>
        <mxCell id="hooPsJ-dlRzRIPjUrd0U-27" value="注册" style="ellipse;whiteSpace=wrap;html=1;" vertex="1" parent="WIyWlLk6GJQsqaUBKTNV-1">
          <mxGeometry x="558" y="399" width="140" height="40" as="geometry" />
        </mxCell>
        <mxCell id="hooPsJ-dlRzRIPjUrd0U-28" value="项目参与方管理" style="ellipse;whiteSpace=wrap;html=1;" vertex="1" parent="WIyWlLk6GJQsqaUBKTNV-1">
          <mxGeometry x="321" y="337" width="140" height="44" as="geometry" />
        </mxCell>
        <mxCell id="hooPsJ-dlRzRIPjUrd0U-29" value="" style="html=1;verticalAlign=bottom;endArrow=block;curved=0;rounded=0;entryX=1;entryY=0.5;entryDx=0;entryDy=0;" edge="1" parent="WIyWlLk6GJQsqaUBKTNV-1" target="hooPsJ-dlRzRIPjUrd0U-27">
          <mxGeometry x="-0.0049" width="80" relative="1" as="geometry">
            <mxPoint x="940" y="670" as="sourcePoint" />
            <mxPoint x="708" y="605" as="targetPoint" />
            <mxPoint as="offset" />
          </mxGeometry>
        </mxCell>
        <mxCell id="hooPsJ-dlRzRIPjUrd0U-30" value="" style="html=1;verticalAlign=bottom;endArrow=block;curved=0;rounded=0;entryX=1;entryY=0.5;entryDx=0;entryDy=0;" edge="1" parent="WIyWlLk6GJQsqaUBKTNV-1" target="hooPsJ-dlRzRIPjUrd0U-26">
          <mxGeometry x="-0.0049" width="80" relative="1" as="geometry">
            <mxPoint x="940" y="670" as="sourcePoint" />
            <mxPoint x="699" y="427" as="targetPoint" />
            <mxPoint as="offset" />
          </mxGeometry>
        </mxCell>
        <mxCell id="hooPsJ-dlRzRIPjUrd0U-32" style="edgeStyle=none;rounded=0;orthogonalLoop=1;jettySize=auto;html=1;entryX=0;entryY=0.5;entryDx=0;entryDy=0;" edge="1" parent="WIyWlLk6GJQsqaUBKTNV-1" target="hooPsJ-dlRzRIPjUrd0U-28">
          <mxGeometry relative="1" as="geometry">
            <mxPoint x="80" y="640" as="sourcePoint" />
            <mxPoint x="181" y="620" as="targetPoint" />
          </mxGeometry>
        </mxCell>
        <mxCell id="hooPsJ-dlRzRIPjUrd0U-33" value="设备认证" style="ellipse;whiteSpace=wrap;html=1;" vertex="1" parent="WIyWlLk6GJQsqaUBKTNV-1">
          <mxGeometry x="325" y="995" width="140" height="44" as="geometry" />
        </mxCell>
        <mxCell id="hooPsJ-dlRzRIPjUrd0U-34" value="设备认证" style="ellipse;whiteSpace=wrap;html=1;" vertex="1" parent="WIyWlLk6GJQsqaUBKTNV-1">
          <mxGeometry x="322" y="912" width="140" height="44" as="geometry" />
        </mxCell>
        <mxCell id="hooPsJ-dlRzRIPjUrd0U-36" style="edgeStyle=none;rounded=0;orthogonalLoop=1;jettySize=auto;html=1;entryX=0;entryY=0.5;entryDx=0;entryDy=0;" edge="1" parent="WIyWlLk6GJQsqaUBKTNV-1" target="hooPsJ-dlRzRIPjUrd0U-34">
          <mxGeometry relative="1" as="geometry">
            <mxPoint x="80" y="650" as="sourcePoint" />
            <mxPoint x="181" y="620" as="targetPoint" />
          </mxGeometry>
        </mxCell>
        <mxCell id="hooPsJ-dlRzRIPjUrd0U-37" style="edgeStyle=none;rounded=0;orthogonalLoop=1;jettySize=auto;html=1;entryX=0;entryY=0.5;entryDx=0;entryDy=0;" edge="1" parent="WIyWlLk6GJQsqaUBKTNV-1" target="hooPsJ-dlRzRIPjUrd0U-33">
          <mxGeometry relative="1" as="geometry">
            <mxPoint x="80" y="650" as="sourcePoint" />
            <mxPoint x="340" y="922" as="targetPoint" />
          </mxGeometry>
        </mxCell>
        <mxCell id="hooPsJ-dlRzRIPjUrd0U-38" value="" style="html=1;verticalAlign=bottom;endArrow=block;curved=0;rounded=0;entryX=1;entryY=0.5;entryDx=0;entryDy=0;" edge="1" parent="WIyWlLk6GJQsqaUBKTNV-1" source="hooPsJ-dlRzRIPjUrd0U-2" target="hooPsJ-dlRzRIPjUrd0U-34">
          <mxGeometry width="80" relative="1" as="geometry">
            <mxPoint x="760" y="680" as="sourcePoint" />
            <mxPoint x="840" y="680" as="targetPoint" />
          </mxGeometry>
        </mxCell>
        <mxCell id="hooPsJ-dlRzRIPjUrd0U-39" value="" style="html=1;verticalAlign=bottom;endArrow=block;curved=0;rounded=0;entryX=1;entryY=0.5;entryDx=0;entryDy=0;" edge="1" parent="WIyWlLk6GJQsqaUBKTNV-1" target="hooPsJ-dlRzRIPjUrd0U-33">
          <mxGeometry width="80" relative="1" as="geometry">
            <mxPoint x="940" y="670" as="sourcePoint" />
            <mxPoint x="472" y="944" as="targetPoint" />
          </mxGeometry>
        </mxCell>
      </root>
    </mxGraphModel>
  </diagram>
</mxfile>
